<svg id="icon-attachment" xmlns="http://www.w3.org/2000/svg" width="18" height="18" viewBox="0 0 18 18">
  <g id="グループ_13860" data-name="グループ 13860">
    <path id="パス_49974" data-name="パス 49974" d="M0,0H18V18H0Z" fill="none"/>
    <path id="パス_49975" data-name="パス 49975" d="M12.38,6.539l-4.5,4.449a.78.78,0,0,0,0,1.112.8.8,0,0,0,1.124,0l4.5-4.449a2.342,2.342,0,0,0,0-3.337,2.4,2.4,0,0,0-3.374,0l-4.5,4.449a3.9,3.9,0,0,0,0,5.561,4.006,4.006,0,0,0,5.622,0l4.5-4.449,1.124,1.112-4.5,4.449a5.609,5.609,0,0,1-7.872,0,5.464,5.464,0,0,1,0-7.787L9.007,3.2a4.006,4.006,0,0,1,5.622,0,3.9,3.9,0,0,1,0,5.562l-4.5,4.451a2.4,2.4,0,0,1-3.374,0,2.342,2.342,0,0,1,0-3.338l4.5-4.449L12.38,6.539Z" transform="translate(-0.878 -1.05)" fill="#aeb5be"/>
  </g>
</svg>
