<svg id="icon-bell" xmlns="http://www.w3.org/2000/svg" width="18" height="18" viewBox="0 0 18 18">
  <g id="グループ_13853" data-name="グループ 13853">
    <rect id="長方形_26929" data-name="長方形 26929" width="18" height="18" fill="none"/>
    <path id="bxs-bell" d="M10,17a2.313,2.313,0,0,0,2.192-1.5H7.808A2.313,2.313,0,0,0,10,17Zm5.444-5.56V8a5.29,5.29,0,0,0-4-5.056,1.575,1.575,0,0,0-2.886,0A5.29,5.29,0,0,0,4.556,8v3.44L3.228,12.72A.733.733,0,0,0,3,13.25V14a.764.764,0,0,0,.778.75H16.222A.764.764,0,0,0,17,14v-.75a.733.733,0,0,0-.228-.53Z" transform="translate(-1 -0.5)" fill="#0d66d0"/>
  </g>
</svg>
