<svg id="icon-check-circle" xmlns="http://www.w3.org/2000/svg" width="18" height="18" viewBox="0 0 18 18">
  <g id="グループ_13849" data-name="グループ 13849">
    <path id="長方形_26925" data-name="長方形 26925" d="M4,0H18a0,0,0,0,1,0,0V18a0,0,0,0,1,0,0H4a4,4,0,0,1-4-4V4A4,4,0,0,1,4,0Z" fill="none"/>
    <path id="パス_49852" data-name="パス 49852" d="M10,18a8,8,0,1,1,8-8A8,8,0,0,1,10,18Zm-.8-4.8,5.656-5.657L13.727,6.412,9.2,10.938,6.939,8.674,5.808,9.806Z" transform="translate(-1 -1)" fill="#00bf69"/>
  </g>
</svg>
