<svg id="icon-draft" xmlns="http://www.w3.org/2000/svg" width="18" height="18" viewBox="0 0 18 18">
  <g id="グループ_13830" data-name="グループ 13830">
    <rect id="長方形_26906" data-name="長方形 26906" width="18" height="18" fill="none"/>
    <path id="パス_49779" data-name="パス 49779" d="M17,7.6v9.594a.79.79,0,0,1-.772.806H3.772A.784.784,0,0,1,3,17.206V2.794A.791.791,0,0,1,3.776,2h7.779V6.8a.789.789,0,0,0,.778.8ZM17,6H13.111V2ZM6.889,6V7.6H9.222V6Zm0,3.2v1.6h6.222V9.2Zm0,3.2V14h6.222V12.4Z" transform="translate(-1 -1)" fill="#aeb5be"/>
  </g>
</svg>
