<svg id="icon-drug" xmlns="http://www.w3.org/2000/svg" width="18" height="18" viewBox="0 0 18 18">
  <g id="グループ_13866" data-name="グループ 13866">
    <rect id="長方形_26942" data-name="長方形 26942" width="18" height="18" fill="none"/>
    <path id="draggabledots" d="M8.167,8.833A1.667,1.667,0,1,0,9.833,10.5,1.667,1.667,0,0,0,8.167,8.833Zm0,5.833a1.667,1.667,0,1,0,1.667,1.667A1.667,1.667,0,0,0,8.167,14.667ZM14,6.333a1.667,1.667,0,1,0-1.667-1.667A1.667,1.667,0,0,0,14,6.333ZM8.167,3A1.667,1.667,0,1,0,9.833,4.667,1.667,1.667,0,0,0,8.167,3ZM14,14.667a1.667,1.667,0,1,0,1.667,1.667A1.667,1.667,0,0,0,14,14.667Zm0-5.833A1.667,1.667,0,1,0,15.667,10.5,1.667,1.667,0,0,0,14,8.833Z" transform="translate(-2.5 -2)" fill="#aeb5be"/>
  </g>
</svg>
