<svg version="1.1" id="Layer_1" xmlns="http://www.w3.org/2000/svg" xmlns:xlink="http://www.w3.org/1999/xlink" x="0px" y="0px"
	 viewBox="0 0 512 512" style="enable-background:new 0 0 512 512;" xml:space="preserve">
<style type="text/css">
	.st0{fill:#333333;}
</style>
<g id="XMLID_2_">
	<path id="XMLID_6_" class="st0" d="M442,326c0,6-2.6,11.9-6.8,16.2l-163,163c-4.3,4.3-10.2,6.8-16.2,6.8s-11.9-2.6-16.2-6.8
		l-163-163c-4.3-4.3-6.8-10.2-6.8-16.2c0-6,2.6-11.9,6.8-16.2c4.3-4.3,10.2-6.8,16.2-6.8h326c6,0,11.9,2.6,16.2,6.8
		S442,319.1,442,326z M442,186c0,6-2.6,11.9-6.8,16.2c-4.3,4.3-10.2,6.8-16.2,6.8H93c-6,0-11.9-2.6-16.2-6.8C72.5,198,70,192,70,186
		s2.6-11.9,6.8-16.2l163-163C244.1,2.6,250,0,256,0s11.9,2.6,16.2,6.8l163,163C439.5,174.1,442,180.1,442,186z"/>
</g>
</svg>
