
<svg id="icon-file-search" xmlns="http://www.w3.org/2000/svg" width="18" height="18" viewBox="0 0 18 18">
  <rect id="長方形_26907" data-name="長方形 26907" width="18" height="18" fill="none"/>
  <path id="パス_49775" data-name="パス 49775" d="M13.111,2,17,6V17.206a.784.784,0,0,1-.772.794H3.772A.789.789,0,0,1,3,17.206V2.794A.783.783,0,0,1,3.772,2Zm-1.922,9.957,1.719,1.768,1.1-1.13L12.29,10.826a3.262,3.262,0,0,0-.778-4.152,3.049,3.049,0,0,0-4.1.263,3.268,3.268,0,0,0-.26,4.224,3.054,3.054,0,0,0,4.041.8Zm-.481-1.626a1.525,1.525,0,0,1-2.2,0,1.633,1.633,0,0,1,0-2.263,1.525,1.525,0,0,1,2.2,0,1.633,1.633,0,0,1,0,2.263Z" transform="translate(-1 -1)" fill="#fff"/>
</svg>
