<svg id="icon-help-line" xmlns="http://www.w3.org/2000/svg" width="18" height="18" viewBox="0 0 18 18">
  <g id="グループ_13838" data-name="グループ 13838">
    <rect id="長方形_26914" data-name="長方形 26914" width="18" height="18" fill="none"/>
    <path id="合体_891" data-name="合体 891" d="M-414-194a8.009,8.009,0,0,1,8-8,8.009,8.009,0,0,1,8,8,8.009,8.009,0,0,1-8,8A8.009,8.009,0,0,1-414-194Zm1.6,0a6.408,6.408,0,0,0,6.4,6.4,6.408,6.408,0,0,0,6.4-6.4,6.408,6.408,0,0,0-6.4-6.4A6.408,6.408,0,0,0-412.4-194Zm5.6,4.8v-1.6h1.6v1.6Zm0-2.4v-.534a2.606,2.606,0,0,1,.822-1.739,7.116,7.116,0,0,1,.553-.48c.588-.475.973-.822.973-1.3A1.549,1.549,0,0,0-406-197.2a1.549,1.549,0,0,0-1.547,1.547h-1.6A3.151,3.151,0,0,1-406-198.8a3.15,3.15,0,0,1,3.146,3.147,3.334,3.334,0,0,1-1.567,2.545,5.49,5.49,0,0,0-.427.367,1.1,1.1,0,0,0-.353.634v.507Z" transform="translate(415 203)" fill="#aeb5be"/>
  </g>
</svg>
