<svg id="icon-help-solid" xmlns="http://www.w3.org/2000/svg" width="18" height="18" viewBox="0 0 18 18">
  <g id="グループ_13839" data-name="グループ 13839">
    <rect id="長方形_26915" data-name="長方形 26915" width="18" height="18" fill="none"/>
    <path id="bxs-help-circle" d="M10,2a8,8,0,1,0,8,8A8.009,8.009,0,0,0,10,2Zm.8,12.8H9.2V13.2h1.6Zm.781-3.908a5.542,5.542,0,0,0-.428.367,1.1,1.1,0,0,0-.353.634V12H9.2v-.134a2.608,2.608,0,0,1,.821-1.739c.156-.156.35-.314.553-.479.587-.476.973-.823.973-1.3a1.547,1.547,0,1,0-3.094,0h-1.6a3.147,3.147,0,1,1,6.294,0A3.336,3.336,0,0,1,11.581,10.892Z" transform="translate(-1 -1)" fill="#aeb5be"/>
  </g>
</svg>
