<svg id="icon-history" xmlns="http://www.w3.org/2000/svg" width="18" height="18" viewBox="0 0 18 18">
  <g id="グループ_13848" data-name="グループ 13848">
    <rect id="長方形_26924" data-name="長方形 26924" width="18" height="18" fill="none"/>
    <path id="合体_890" data-name="合体 890" d="M-833.732-155.163a8.149,8.149,0,0,1-1.52-.466,8.108,8.108,0,0,1-1.375-.737,8.008,8.008,0,0,1-1.2-.977l1.272-1.257a6.332,6.332,0,0,0,.933.759,6.285,6.285,0,0,0,1.069.574,6.368,6.368,0,0,0,1.181.363,6.511,6.511,0,0,0,2.541,0,6.4,6.4,0,0,0,1.181-.363,6.4,6.4,0,0,0,1.07-.575,6.379,6.379,0,0,0,.932-.759,6.243,6.243,0,0,0,.769-.921,6.226,6.226,0,0,0,.581-1.057,6.129,6.129,0,0,0,.367-1.168A6.221,6.221,0,0,0-825.8-163a6.279,6.279,0,0,0-.127-1.258,6.1,6.1,0,0,0-.367-1.165,6.134,6.134,0,0,0-.58-1.057,6.27,6.27,0,0,0-.77-.922,6.41,6.41,0,0,0-.933-.761,6.389,6.389,0,0,0-1.069-.573,6.425,6.425,0,0,0-1.181-.363,6.47,6.47,0,0,0-2.541,0,6.3,6.3,0,0,0-1.181.363,6.459,6.459,0,0,0-1.071.574,6.338,6.338,0,0,0-.932.761,6.294,6.294,0,0,0-.769.922,6.107,6.107,0,0,0-.581,1.056,6.149,6.149,0,0,0-.367,1.167A6.231,6.231,0,0,0-838.4-163c0,.006,0,.015,0,.022h1.8l-2.7,3.533-2.7-3.533h1.8c0-.007,0-.016,0-.022a7.961,7.961,0,0,1,.165-1.613,7.826,7.826,0,0,1,.472-1.5,8.023,8.023,0,0,1,.746-1.359,8.184,8.184,0,0,1,.989-1.184,8.083,8.083,0,0,1,1.2-.976,8.047,8.047,0,0,1,1.376-.738,8.178,8.178,0,0,1,1.521-.466,8.3,8.3,0,0,1,3.264,0,8.2,8.2,0,0,1,1.521.467,8.014,8.014,0,0,1,1.375.737,8.065,8.065,0,0,1,1.2.976,7.957,7.957,0,0,1,.989,1.184,7.95,7.95,0,0,1,.746,1.36,7.847,7.847,0,0,1,.473,1.5A8.063,8.063,0,0,1-824-163a8.042,8.042,0,0,1-.164,1.611,7.9,7.9,0,0,1-.473,1.5,7.911,7.911,0,0,1-.747,1.359,8,8,0,0,1-.988,1.183,8.1,8.1,0,0,1-1.2.976,8.094,8.094,0,0,1-1.378.739,8.143,8.143,0,0,1-1.521.465A8.237,8.237,0,0,1-832.1-155,8.245,8.245,0,0,1-833.732-155.163Zm.732-6.948v-4.445h1.8v2.667h2.7v1.778Z" transform="translate(842 172)" fill="#aeb5be"/>
  </g>
</svg>
