<svg id="icon-home" xmlns="http://www.w3.org/2000/svg" width="18" height="18" viewBox="0 0 18 18">
  <rect id="長方形_26904" data-name="長方形 26904" width="18" height="18" fill="none"/>
  <path id="bxs-home" d="M17.795,9.241l-7.2-7.005a.908.908,0,0,0-1.189,0l-7.2,7.005A.633.633,0,0,0,2.07,10a.81.81,0,0,0,.73.415H4.4v4.9a.755.755,0,0,0,.8.7H7.6a.755.755,0,0,0,.8-.7v-2.8h3.2v2.8a.755.755,0,0,0,.8.7h2.4a.755.755,0,0,0,.8-.7v-4.9h1.6a.81.81,0,0,0,.73-.415A.633.633,0,0,0,17.795,9.241Z" transform="translate(-1 -0.015)" fill="#0c80ed"/>
</svg>
