<svg id="icon-link" xmlns="http://www.w3.org/2000/svg" width="24" height="24" viewBox="0 0 24 24">
  <g id="グループ_13865" data-name="グループ 13865">
    <rect id="長方形_26922" data-name="長方形 26922" width="24" height="24" fill="none"/>
    <path id="合体_889" data-name="合体 889" d="M1.489,15.842a5.109,5.109,0,0,1,0-7.21L3.653,6.471a5.1,5.1,0,0,1,7.209,0l.72.72L10.14,8.633l-.72-.72a3.131,3.131,0,0,0-4.325,0L2.931,10.074A3.059,3.059,0,0,0,7.257,14.4l.721-.72L9.42,15.122l-.721.72a5.1,5.1,0,0,1-7.21,0Zm4.983-4.979-.722-.721L7.192,8.7l.722.721a3.134,3.134,0,0,0,4.325,0L14.4,7.258a3.059,3.059,0,0,0-4.326-4.326l-.72.721L7.914,2.212l.72-.722a5.1,5.1,0,0,1,7.21,7.21L13.68,10.863a5.1,5.1,0,0,1-7.208,0Z" transform="translate(4 2.667)" fill="#0d66d0"/>
  </g>
</svg>
