<svg id="icon-color" xmlns="http://www.w3.org/2000/svg" width="18" height="18" viewBox="0 0 18 18">
  <g id="グループ_13863" data-name="グループ 13863">
    <path id="パス_49982" data-name="パス 49982" d="M0,0H18V18H0Z" fill="none"/>
    <path id="パス_49983" data-name="パス 49983" d="M9,2c3.865,0,7,2.785,7,6.222a3.891,3.891,0,0,1-3.889,3.889H10.735a1.163,1.163,0,0,0-.872,1.937A1.167,1.167,0,0,1,9,16,7,7,0,0,1,9,2ZM5.85,9A1.05,1.05,0,1,0,4.8,7.95,1.05,1.05,0,0,0,5.85,9Zm6.3,0A1.05,1.05,0,1,0,11.1,7.95,1.05,1.05,0,0,0,12.15,9ZM9,6.9A1.05,1.05,0,1,0,7.95,5.85,1.05,1.05,0,0,0,9,6.9Z" fill="#676d75"/>
  </g>
</svg>
