<svg xmlns="http://www.w3.org/2000/svg" width="18.016" height="18.003" viewBox="0 0 18.016 18.003">
  <g id="icon-setting" transform="translate(0.016)">
    <rect id="長方形_26950" data-name="長方形 26950" width="18" height="18" fill="none"/>
    <path id="cog-solid" d="M34.439,18.022,33,17.228a5.953,5.953,0,0,0,0-2.265l1.435-.794a.383.383,0,0,0,.185-.452,7.961,7.961,0,0,0-1.843-3.052.419.419,0,0,0-.5-.074l-1.435.794A6.433,6.433,0,0,0,28.8,10.254V8.67a.391.391,0,0,0-.317-.377,8.84,8.84,0,0,0-3.68,0,.391.391,0,0,0-.317.377v1.587a6.637,6.637,0,0,0-2.049,1.132L21,10.6a.413.413,0,0,0-.5.074,7.913,7.913,0,0,0-1.843,3.052.379.379,0,0,0,.185.452l1.435.794a5.953,5.953,0,0,0,0,2.265l-1.435.794a.383.383,0,0,0-.185.452,7.961,7.961,0,0,0,1.843,3.052.419.419,0,0,0,.5.074l1.435-.794a6.433,6.433,0,0,0,2.049,1.132v1.587a.391.391,0,0,0,.317.377,8.84,8.84,0,0,0,3.68,0,.391.391,0,0,0,.317-.377V21.941a6.637,6.637,0,0,0,2.049-1.132l1.435.794a.413.413,0,0,0,.5-.074,7.913,7.913,0,0,0,1.843-3.052A.391.391,0,0,0,34.439,18.022Zm-7.8.655a2.583,2.583,0,1,1,2.7-2.581A2.644,2.644,0,0,1,26.642,18.676Z" transform="translate(-18.144 -6.599)" fill="#0c80ed" stroke="rgba(112,112,112,0)" stroke-miterlimit="10" stroke-width="1"/>
  </g>
</svg>
