<svg id="icon-filter" xmlns="http://www.w3.org/2000/svg" width="16" height="16" viewBox="0 0 16 16">
  <g id="グループ_13847" data-name="グループ 13847">
    <rect id="長方形_26923" data-name="長方形 26923" width="16" height="16" fill="none"/>
    <path id="パス_49835" data-name="パス 49835" d="M4.965,13.374a2.134,2.134,0,0,1,4.025,0h7.232V14.8H8.99a2.134,2.134,0,0,1-4.025,0H2V13.374ZM9.232,8.4a2.134,2.134,0,0,1,4.025,0h2.965V9.82H13.257a2.134,2.134,0,0,1-4.025,0H2V8.4ZM4.965,3.421a2.134,2.134,0,0,1,4.025,0h7.232V4.843H8.99a2.134,2.134,0,0,1-4.025,0H2V3.421ZM6.978,4.843a.711.711,0,1,0-.711-.711A.711.711,0,0,0,6.978,4.843ZM11.244,9.82a.711.711,0,1,0-.711-.711A.711.711,0,0,0,11.244,9.82ZM6.978,14.8a.711.711,0,1,0-.711-.711A.711.711,0,0,0,6.978,14.8Z" transform="translate(-1.111 -1.109)" fill="#788494"/>
  </g>
</svg>
