<svg id="icon-three" xmlns="http://www.w3.org/2000/svg" width="18" height="18" viewBox="0 0 18 18">
  <path id="パス_51567" data-name="パス 51567" d="M0,0H18V18H0Z" fill="none"/>
  <path id="パス_51568" data-name="パス 51568" d="M12.333,3a.778.778,0,0,1,.778.778V6.889a.778.778,0,0,1-.778.778H10.778V9.222h3.111a.778.778,0,0,1,.778.778v2.333h1.556a.778.778,0,0,1,.778.778v3.111a.778.778,0,0,1-.778.778H11.556a.778.778,0,0,1-.778-.778V13.111a.778.778,0,0,1,.778-.778h1.556V10.778H6.889v1.556H8.444a.778.778,0,0,1,.778.778v3.111A.778.778,0,0,1,8.444,17H3.778A.778.778,0,0,1,3,16.222V13.111a.778.778,0,0,1,.778-.778H5.333V10a.778.778,0,0,1,.778-.778H9.222V7.667H7.667a.778.778,0,0,1-.778-.778V3.778A.778.778,0,0,1,7.667,3ZM7.667,13.889H4.556v1.556H7.667Zm7.778,0H12.333v1.556h3.111ZM11.556,4.556H8.444V6.111h3.111Z" transform="translate(-1 -1)" fill="#aeb5be"/>
</svg>
