<svg id="icon-trash" xmlns="http://www.w3.org/2000/svg" width="15" height="15" viewBox="0 0 15 15">
  <g id="グループ_13851" data-name="グループ 13851">
    <rect id="長方形_26927" data-name="長方形 26927" width="15" height="15" fill="none"/>
    <path id="パス_49858" data-name="パス 49858" d="M11.375,4.5H14.5V5.75H13.25v8.125a.625.625,0,0,1-.625.625H3.875a.625.625,0,0,1-.625-.625V5.75H2V4.5H5.125V2.625A.625.625,0,0,1,5.75,2h5a.625.625,0,0,1,.625.625ZM12,5.75H4.5v7.5H12ZM6.375,7.625h1.25v3.75H6.375Zm2.5,0h1.25v3.75H8.875ZM6.375,3.25V4.5h3.75V3.25Z" transform="translate(-0.333 -0.333)" fill="#d60b0b"/>
  </g>
</svg>
